<svg xmlns="http://www.w3.org/2000/svg" width="26" height="26" viewBox="0 0 26 26">
  <g fill="none" fill-rule="evenodd" transform="translate(-2 -3)">
    <path fill="#FFFFFF" d="M16.6127651,23.1972815 C17.7776561,22.9763539 18.7115632,22.5545894 19.4145147,21.9319752 C20.1777191,21.2290238 20.5593156,20.3352847 20.5593156,19.250731 C20.5593156,17.8247438 19.9969629,16.6799543 18.8722406,15.8163283 C18.0487832,15.2137985 16.8437416,14.7116978 15.2570798,14.3100113 C14.0319359,14.0087464 13.1683228,13.657276 12.6662146,13.2555894 C12.1841908,12.8940715 11.9431825,12.442181 11.9431825,11.8999041 C11.9431825,11.2973743 12.2143168,10.8002947 12.7565936,10.4086503 C13.2988705,10.017006 14.0319374,9.82118671 14.9558164,9.82118671 C16.7433215,9.82118671 17.6671867,10.6145057 17.7274397,12.2011675 L20.1977995,12.2011675 C20.1576309,11.1768669 19.8463285,10.3032118 19.263883,9.58017599 C18.6412689,8.79688725 17.7575717,8.25461856 16.6127651,7.95335365 L16.6127651,5.48299381 L13.2386151,5.48299381 L13.2386151,7.95335365 C12.0938084,8.2144499 11.1799853,8.66634048 10.4971182,9.30903894 C9.73391374,10.0320747 9.35231725,10.9157718 9.35231725,11.9601568 C9.35231725,13.1853008 9.83433387,14.17946 10.7983816,14.9426644 C11.6419233,15.6054472 12.9072169,16.1376739 14.5943003,16.5393604 C15.8997816,16.8406253 16.8136048,17.2423059 17.3357972,17.744414 C17.7575681,18.1461006 17.9684504,18.6482012 17.9684504,19.250731 C17.9684504,19.7528392 17.7776521,20.1746037 17.3960499,20.5160373 C16.8738574,20.9980611 16.0654754,21.2390694 14.9708796,21.2390694 C13.8762838,21.2390694 13.0478177,21.0081031 12.4854566,20.5461636 C11.9632641,20.1444771 11.6720457,19.5921664 11.6117927,18.8892149 L9.14143288,18.8892149 C9.20168586,20.0340216 9.63349241,20.9779708 10.4368655,21.7210909 C11.1599012,22.403958 12.0938084,22.8759326 13.2386151,23.1370288 L13.2386151,25.6073887 L16.6127651,25.6073887 L16.6127651,23.1972815 Z M14.8353111,3.01263396 C17.1249243,3.01263396 19.243789,3.58502869 21.1919687,4.72983532 C23.0798954,5.81438897 24.5661133,7.30060686 25.650667,9.18853358 C26.7954736,11.1367133 27.3678683,13.255578 27.3678683,15.5451912 C27.3678683,17.8348045 26.7954736,19.9536692 25.650667,21.9018489 C24.5661133,23.7897756 23.0798954,25.2759935 21.1919687,26.3605471 C19.243789,27.5053538 17.1249243,28.0777485 14.8353111,28.0777485 C12.5456978,28.0777485 10.4268331,27.5053538 8.47865341,26.3605471 C6.59072668,25.2559092 5.10450879,23.7596493 4.01995515,21.8717225 C2.87514852,19.9235428 2.30275379,17.8147202 2.30275379,15.5451912 C2.30275379,13.2756623 2.87514852,11.1668396 4.01995515,9.21865992 C5.12459312,7.3307332 6.62085302,5.83447329 8.50877975,4.72983532 C10.4569594,3.58502869 12.5657821,3.01263396 14.8353111,3.01263396 Z"/>
    <rect width="30.126" height="30.126"/>
  </g>
</svg>
