<svg xmlns="http://www.w3.org/2000/svg" width="18" height="20" viewBox="0 0 18 20">
  <g fill="none" fill-rule="evenodd" transform="translate(-2 -2)">
    <path fill="#FFFFFF" d="M15.9285714,2.26859497 C16.8139925,2.26859497 17.5710534,2.6251693 18.1997768,3.33832865 C18.8285002,4.051488 19.1428571,4.91022025 19.1428571,5.91455117 L19.1428571,18.0677385 C19.1428571,19.0720694 18.8285002,19.9308017 18.1997768,20.643961 C17.5710534,21.3571204 16.8139925,21.7136947 15.9285714,21.7136947 L13.8303571,21.7136947 L13.8303571,14.1812505 L16.0513393,14.1812505 L16.3861607,11.2442302 L13.8303571,11.2442302 L13.8303571,9.37061382 C13.8303571,8.8979875 13.9177819,8.54352309 14.0926339,8.30720993 C14.267486,8.07089677 14.6078844,7.95274196 15.1138393,7.95274196 L16.4754464,7.94008239 L16.4754464,5.31955137 C16.0066941,5.24359357 15.3444983,5.20561524 14.4888393,5.20561524 C13.4769295,5.20561524 12.6677858,5.5432004 12.0613839,6.21838085 C11.4549821,6.8935613 11.1517857,7.84723938 11.1517857,9.07944371 L11.1517857,11.2442302 L8.91964286,11.2442302 L8.91964286,14.1812505 L11.1517857,14.1812505 L11.1517857,21.7136947 L5.21428571,21.7136947 C4.32886462,21.7136947 3.57180374,21.3571204 2.94308036,20.643961 C2.31435698,19.9308017 2,19.0720694 2,18.0677385 L2,5.91455117 C2,4.91022025 2.31435698,4.051488 2.94308036,3.33832865 C3.57180374,2.6251693 4.32886462,2.26859497 5.21428571,2.26859497 L15.9285714,2.26859497 Z"/>
    <rect width="20" height="22.686"/>
  </g>
</svg>
