<svg xmlns="http://www.w3.org/2000/svg" width="18" height="20" viewBox="0 0 18 20">
  <g fill="none" fill-rule="evenodd" transform="translate(-2 -2)">
    <path fill="#FFFFFF" d="M16.2857143,8.37050778 C15.8690455,8.58150167 15.4189012,8.72497536 14.9352679,8.80093316 C15.4412228,8.46334294 15.7872015,7.96962464 15.9732143,7.31976346 C15.4895809,7.64047417 14.991074,7.85568471 14.4776786,7.96540153 C14.0238073,7.40837766 13.4546165,7.1298699 12.7700893,7.1298699 C12.1227646,7.1298699 11.5703148,7.3893885 11.1127232,7.90843347 C10.6551316,8.42747844 10.4263393,9.05412089 10.4263393,9.78837963 C10.4263393,10.0331325 10.4449403,10.2356836 10.4821429,10.396039 C9.52231663,10.3369607 8.62202801,10.0626728 7.78125,9.57316694 C6.94047199,9.08366112 6.22619342,8.42958987 5.63839286,7.61093357 C5.42261797,8.03292135 5.31473214,8.48022169 5.31473214,8.95284801 C5.31473214,9.91498015 5.65327042,10.6534477 6.33035714,11.1682728 C5.98065301,11.159833 5.60863292,11.0501178 5.21428571,10.839124 L5.21428571,10.8644431 C5.21428571,11.4974248 5.40029576,12.06077 5.77232143,12.5544957 C6.1443471,13.0482214 6.60193181,13.354158 7.14508929,13.4723145 C6.9293144,13.5398326 6.73958415,13.5735911 6.57589286,13.5735911 C6.47916618,13.5735911 6.33407835,13.5567118 6.140625,13.5229528 C6.29687578,14.0546574 6.57403075,14.4935181 6.97209821,14.8395481 C7.37016568,15.1855781 7.82217009,15.3628103 8.328125,15.3712501 C7.46502545,16.1308281 6.49405301,16.5106114 5.41517857,16.5106114 C5.22172522,16.5106114 5.03571518,16.4979519 4.85714286,16.4726327 C5.95833884,17.2659697 7.15624353,17.6626323 8.45089286,17.6626323 C9.28423036,17.6626323 10.0654725,17.5128288 10.7946429,17.2132175 C11.5238132,16.9136062 12.1488069,16.5127238 12.6696429,16.0105584 C13.1904788,15.5083929 13.638763,14.9302783 14.0145089,14.2761973 C14.3902549,13.6221162 14.6692699,12.9385062 14.8515625,12.2253469 C15.0338551,11.5121875 15.125,10.8011488 15.125,10.0922093 C15.125,9.94029372 15.1212798,9.82635872 15.1138393,9.75040092 C15.5825916,9.37061192 15.9732127,8.91065214 16.2857143,8.37050778 Z M19.1428571,5.91455117 L19.1428571,18.0677385 C19.1428571,19.0720694 18.8285002,19.9308017 18.1997768,20.643961 C17.5710534,21.3571204 16.8139925,21.7136947 15.9285714,21.7136947 L5.21428571,21.7136947 C4.32886462,21.7136947 3.57180374,21.3571204 2.94308036,20.643961 C2.31435698,19.9308017 2,19.0720694 2,18.0677385 L2,5.91455117 C2,4.91022025 2.31435698,4.051488 2.94308036,3.33832865 C3.57180374,2.6251693 4.32886462,2.26859497 5.21428571,2.26859497 L15.9285714,2.26859497 C16.8139925,2.26859497 17.5710534,2.6251693 18.1997768,3.33832865 C18.8285002,4.051488 19.1428571,4.91022025 19.1428571,5.91455117 Z"/>
    <rect width="20" height="22.686"/>
  </g>
</svg>
