<svg xmlns="http://www.w3.org/2000/svg" width="18" height="23" viewBox="0 0 18 23">
  <g fill="none" fill-rule="evenodd" transform="translate(-1)">
    <path fill="#FFFFFF" d="M12.4482587,15.6386356 L12.4482587,18.2911695 C12.4482587,18.8526882 12.3041831,19.1334433 12.0160275,19.1334433 C11.8460896,19.1334433 11.6798485,19.041255 11.5172992,18.8568758 L11.5172992,15.0729294 C11.6798485,14.8885501 11.8460896,14.7963619 12.0160275,14.7963619 C12.3041831,14.7963619 12.4482587,15.077117 12.4482587,15.6386356 Z M16.1942625,15.6512069 L16.1942625,16.2294844 L15.1968059,16.2294844 L15.1968059,15.6512069 C15.1968059,15.0813074 15.363047,14.7963619 15.6955342,14.7963619 C16.0280214,14.7963619 16.1942625,15.0813074 16.1942625,15.6512069 Z M5.48822804,12.9106743 L6.67409314,12.9106743 L6.67409314,11.7289767 L3.21624349,11.7289767 L3.21624349,12.9106743 L4.37994289,12.9106743 L4.37994289,20.0637158 L5.48822804,20.0637158 L5.48822804,12.9106743 Z M8.68008925,20.0637158 L9.66646303,20.0637158 L9.66646303,13.8535181 L8.68008925,13.8535181 L8.68008925,18.6054508 C8.45843111,18.9574475 8.24785904,19.1334433 8.04836672,19.1334433 C7.91537184,19.1334433 7.83779265,19.0454454 7.81562684,18.869447 C7.80823823,18.8443044 7.80454399,18.6976413 7.80454399,18.4294533 L7.80454399,13.8535181 L6.81817021,13.8535181 L6.81817021,18.768877 C6.81817021,19.1795399 6.84772418,19.4854373 6.90683302,19.6865783 C6.99549628,19.9966707 7.20976259,20.1517146 7.5496384,20.1517146 C7.90429142,20.1517146 8.2811046,19.8961017 8.68008925,19.3848683 L8.68008925,20.0637158 Z M13.4346325,18.2031708 L13.4346325,15.7266344 C13.4346325,15.1148305 13.4013843,14.6999834 13.3348869,14.4820806 C13.2092806,14.0127516 12.9469891,13.7780906 12.5480044,13.7780906 C12.1785742,13.7780906 11.8350092,14.0043708 11.5172992,14.4569381 L11.5172992,11.7289767 L10.5309254,11.7289767 L10.5309254,20.0637158 L11.5172992,20.0637158 L11.5172992,19.4602958 C11.8497864,19.921244 12.1933514,20.1517146 12.5480044,20.1517146 C12.9469891,20.1517146 13.2092806,19.921244 13.3348869,19.4602958 C13.4013843,19.2340122 13.4346325,18.8149747 13.4346325,18.2031708 Z M17.1806363,18.0774582 L17.1806363,17.914032 L16.1720968,17.914032 C16.1720968,18.3414566 16.1647083,18.5970695 16.1499311,18.6808783 C16.0982109,18.9825898 15.950441,19.1334433 15.7066171,19.1334433 C15.3667413,19.1334433 15.1968059,18.8443074 15.1968059,18.266027 L15.1968059,17.1723282 L17.1806363,17.1723282 L17.1806363,15.8774894 C17.1806363,15.2154002 17.0808916,14.7293167 16.8813993,14.4192243 C16.5932437,13.9917997 16.2016536,13.7780906 15.7066171,13.7780906 C15.204192,13.7780906 14.8089075,13.9917997 14.520752,14.4192243 C14.313871,14.7293167 14.2104321,15.2154002 14.2104321,15.8774894 L14.2104321,18.0523157 C14.2104321,18.7144049 14.3175653,19.2004884 14.5318348,19.5105808 C14.8199904,19.9380055 15.2189691,20.1517146 15.7287828,20.1517146 C16.2607623,20.1517146 16.659741,19.9296247 16.9257307,19.4854383 C17.0587256,19.2591547 17.1363048,19.0328744 17.1584706,18.8065908 C17.1732478,18.7311629 17.1806363,18.4881211 17.1806363,18.0774582 Z M10.4422626,6.59990652 L10.4422626,3.95994391 C10.4422626,3.3816635 10.28341,3.09252763 9.96570002,3.09252763 C9.64799002,3.09252763 9.48913741,3.3816635 9.48913741,3.95994391 L9.48913741,6.59990652 C9.48913741,7.18656781 9.64799002,7.47989406 9.96570002,7.47989406 C10.28341,7.47989406 10.4422626,7.18656781 10.4422626,6.59990652 Z M18.4108328,16.0409157 C18.4108328,18.0020405 18.3147824,19.4686718 18.1226787,20.4408533 C18.0192382,20.935325 17.8049719,21.3501721 17.4798733,21.6854071 C17.1547747,22.0206422 16.7779615,22.2133994 16.3494225,22.2636847 C14.9899192,22.4396831 12.9396122,22.5276809 10.1984399,22.5276809 C7.4572676,22.5276809 5.40696059,22.4396831 4.04745735,22.2636847 C3.61891828,22.2133994 3.24025798,22.0206422 2.91146507,21.6854071 C2.58267217,21.3501721 2.37025298,20.935325 2.27420112,20.4408533 C2.0820974,19.5021953 1.98604698,18.035564 1.98604698,16.0409157 C1.98604698,14.0797908 2.0820974,12.6131595 2.27420112,11.640978 C2.37764158,11.1465063 2.5919079,10.7316592 2.9170065,10.3964242 C3.2421051,10.0611892 3.62261253,9.86424153 4.0585402,9.8055754 C5.41065484,9.63795789 7.4572676,9.55415039 10.1984399,9.55415039 C12.9396122,9.55415039 14.9899192,9.63795789 16.3494225,9.8055754 C16.7779615,9.86424153 17.1566218,10.0611892 17.4854147,10.3964242 C17.8142076,10.7316592 18.0266268,11.1465063 18.1226787,11.640978 C18.3147824,12.579636 18.4108328,14.0462673 18.4108328,16.0409157 Z M7.35014708,0 L8.48059793,0 L7.1395729,5.01592896 L7.1395729,8.42273785 L6.03128776,8.42273785 L6.03128776,5.01592896 C5.92784729,4.39574416 5.70249823,3.50738468 5.35523382,2.35082385 C5.08185545,1.48759366 4.8417294,0.703993549 4.63484847,0 L5.80963073,0 L6.59651318,3.30623889 L7.35014708,0 Z M11.4508021,4.18622642 L11.4508021,6.38619526 C11.4508021,7.06504619 11.3473632,7.55951043 11.1404823,7.86960282 C10.8671039,8.29702748 10.4755137,8.5107366 9.96570002,8.5107366 C9.47066351,8.5107366 9.08276759,8.29702748 8.80200062,7.86960282 C8.59511969,7.55112955 8.49168078,7.05666531 8.49168078,6.38619526 L8.49168078,4.18622642 C8.49168078,3.51575638 8.59511969,3.02548251 8.80200062,2.71539011 C9.08276759,2.28796546 9.47066351,2.07425634 9.96570002,2.07425634 C10.4755137,2.07425634 10.8671039,2.28796546 11.1404823,2.71539011 C11.3473632,3.02548251 11.4508021,3.51575638 11.4508021,4.18622642 Z M15.1635573,2.14968384 L15.1635573,8.42273785 L14.1550179,8.42273785 L14.1550179,7.73131907 C13.7634218,8.25093335 13.3829144,8.5107366 13.0134842,8.5107366 C12.6736084,8.5107366 12.4556478,8.35569273 12.3595959,8.04560033 C12.3004871,7.84445932 12.2709331,7.5301812 12.2709331,7.10275654 L12.2709331,2.14968384 L13.2794726,2.14968384 L13.2794726,6.76333278 C13.2794726,7.03990167 13.2831668,7.1865648 13.2905555,7.20332655 C13.3127213,7.38770581 13.3903005,7.47989406 13.5232953,7.47989406 C13.7227877,7.47989406 13.9333597,7.29970794 14.1550179,6.93933029 L14.1550179,2.14968384 L15.1635573,2.14968384 Z"/>
    <rect width="19.86" height="22.528"/>
  </g>
</svg>
